Coordinates
version=1
nRows=18
nColumns=33
inDegrees=yes

Units are S.I. units (second, meters, Newtons, ...)
Angles are in degrees.

endheader
time	ground_thorax_rot_x	ground_thorax_rot_y	ground_thorax_rot_z	ground_thorax_tx	ground_thorax_ty	ground_thorax_tz	clav_prot_r	clav_elev_r	scapula_abduction_r	scapula_elevation_r	scapula_upward_rot_r	scapula_winging_r	shoulder_elv_r	plane_of_elev_r	axial_rot_r	elbow_flexion_r	pro_sup_r	wrist_flex_r	wrist_dev_r	clav_prot_l	clav_elev_l	scapula_abduction_l	scapula_elevation_l	scapula_upward_rot_l	scapula_winging_l	shoulder_elv_l	plane_of_elev_l	axial_rot_l	elbow_flexion_l	pro_sup_l	wrist_flex_l	wrist_dev_l	
3.1600	-3.775632	0.841919	8.074972	-0.100675	1.030152	0.004193	17.074255	-12.254703	44.596295	-13.354311	26.088025	-13.144313	-2.778205	-54.184451	123.405593	-32.155957	-134.252022	-1.996943	7.513810	26.242353	-12.246693	-39.328326	-4.724186	-24.620791	13.308565	56.549485	-0.536229	5.285172	11.442704	12.042814	18.573347	-2.924435	
3.1700	-3.750111	0.830345	8.059622	-0.100669	1.030157	0.004079	17.078898	-12.139481	44.604095	-13.253981	26.078812	-13.221712	-2.892925	-54.235644	123.376567	-32.236136	-134.538855	-1.905448	7.325444	26.126226	-12.169428	-39.149205	-4.795850	-24.622333	13.219517	56.510533	-0.547898	5.272111	11.528557	11.857203	18.431421	-2.905373	
3.1800	-3.708031	0.812738	8.056687	-0.100663	1.030068	0.004004	17.087569	-11.994777	44.610373	-13.125014	26.055609	-13.318894	-3.060713	-54.302510	123.333380	-32.376243	-134.995462	-1.756749	7.039788	25.948764	-12.070250	-38.872922	-4.887257	-24.619866	13.076778	56.460950	-0.571697	5.244380	11.688399	11.570820	18.231403	-2.888182	
3.1900	-3.651170	0.795159	8.059764	-0.100639	1.029873	0.003951	17.096437	-11.831571	44.588271	-12.969520	25.988771	-13.421109	-3.274822	-54.402826	123.270226	-32.598588	-135.654222	-1.540506	6.654645	25.702475	-11.947732	-38.487014	-5.001651	-24.616905	12.872603	56.408383	-0.630050	5.198476	11.944353	11.179593	17.984709	-2.882159	
3.2000	-3.591924	0.786210	8.067275	-0.100640	1.029661	0.003909	17.096355	-11.731831	44.492890	-12.847985	25.840508	-13.461535	-3.485466	-54.545762	123.195932	-32.910504	-136.579119	-1.248127	6.195120	25.392306	-11.834904	-37.994924	-5.106812	-24.604587	12.601762	56.388730	-0.762659	5.092429	12.307616	10.701102	17.752685	-2.908090	
3.2100	-3.528692	0.792497	8.082911	-0.100681	1.029417	0.003877	17.077328	-11.693197	44.300500	-12.755449	25.598242	-13.431644	-3.688266	-54.723359	123.115953	-33.326898	-137.757615	-0.898651	5.685210	25.026610	-11.725792	-37.410880	-5.207975	-24.584272	12.274990	56.391736	-0.952603	4.943308	12.776825	10.169354	17.536872	-2.965166	
3.2200	-3.469379	0.824102	8.107387	-0.100801	1.029188	0.003849	17.032748	-11.750968	43.982107	-12.715663	25.237305	-13.298932	-3.847630	-54.924807	123.031080	-33.855570	-139.117616	-0.524968	5.191856	24.640129	-11.640443	-36.788335	-5.289409	-24.562369	11.920047	56.430588	-1.203518	4.764020	13.344975	9.658728	17.377535	-3.064037	
3.2300	-3.417947	0.885537	8.141709	-0.100994	1.028969	0.003822	16.945881	-11.901857	43.512264	-12.725912	24.757325	-13.052091	-3.967677	-55.138416	122.955317	-34.509138	-140.669805	-0.168090	4.750175	24.246248	-11.565509	-36.150818	-5.362467	-24.540767	11.555587	56.490156	-1.482151	4.580116	13.995130	9.230355	17.247859	-3.195955	
3.2400	-3.370429	0.976135	8.180911	-0.101260	1.028757	0.003806	16.823050	-12.121446	42.910851	-12.767418	24.170255	-12.713926	-4.055206	-55.350353	122.870439	-35.288398	-142.340772	0.163179	4.372813	23.858547	-11.504551	-35.520037	-5.424983	-24.522886	11.193732	56.566991	-1.772822	4.406629	14.706012	8.906812	17.139963	-3.355499	
3.2500	-3.314571	1.088862	8.234029	-0.101585	1.028486	0.003824	16.670325	-12.339503	42.212851	-12.787139	23.506499	-12.339709	-4.162998	-55.548075	122.754951	-36.203751	-144.037397	0.455239	4.060001	23.480631	-11.436000	-34.904618	-5.501702	-24.523396	10.844504	56.631260	-2.036857	4.295444	15.473226	8.705929	17.001671	-3.530259	
3.2600	-3.242258	1.218166	8.303360	-0.101984	1.028159	0.003893	16.507513	-12.523328	41.463711	-12.760399	22.784369	-11.969295	-4.310408	-55.724827	122.567750	-37.254901	-145.597966	0.719701	3.825855	23.128176	-11.373247	-34.328003	-5.587445	-24.557129	10.517295	56.687473	-2.279121	4.275563	16.300919	8.635976	16.846271	-3.727580	
3.2700	-3.170514	1.361154	8.383472	-0.102424	1.027851	0.003993	16.319619	-12.729764	40.640419	-12.736966	22.008206	-11.554762	-4.507935	-55.911833	122.303417	-38.441246	-147.144090	0.962473	3.677094	22.784104	-11.323731	-33.761150	-5.676542	-24.623932	10.193204	56.765009	-2.522108	4.313457	17.195043	8.730958	16.667745	-3.960228	
3.2800	-3.093752	1.506407	8.469212	-0.102905	1.027569	0.004131	16.117911	-12.932614	39.782580	-12.701320	21.208410	-11.127671	-4.764590	-56.107562	121.959440	-39.737704	-148.618773	1.209388	3.579736	22.443317	-11.285799	-33.196052	-5.769407	-24.720570	9.867186	56.859976	-2.771628	4.418127	18.153349	8.948724	16.489518	-4.230072	
3.2900	-3.017141	1.645591	8.562825	-0.103413	1.027326	0.004294	15.897115	-13.131901	38.892445	-12.657458	20.400460	-10.686480	-5.087122	-56.319451	121.562558	-41.127132	-150.047240	1.455905	3.519271	22.102426	-11.246908	-32.628611	-5.878196	-24.849602	9.539860	56.965462	-3.031668	4.597487	19.186853	9.280724	16.316211	-4.537885	
3.3000	-2.940122	1.774262	8.663067	-0.103950	1.027131	0.004482	15.663268	-13.318473	37.987574	-12.600228	19.595302	-10.244135	-5.478975	-56.549293	121.121074	-42.595430	-151.432959	1.697003	3.462622	21.767432	-11.202903	-32.069273	-6.008833	-25.016561	9.217843	57.080231	-3.308533	4.856498	20.312206	9.731179	16.163558	-4.888424	
3.3100	-2.874899	1.887261	8.763170	-0.104490	1.027023	0.004669	15.405079	-13.522206	37.050842	-12.556675	18.796880	-9.773086	-5.927532	-56.810471	120.678503	-44.124582	-152.913980	1.934956	3.383047	21.422531	-11.142194	-31.493871	-6.167411	-25.211071	8.889951	57.207030	-3.615774	5.156979	21.536717	10.263964	16.028309	-5.276185	
3.3200	-2.813365	1.981513	8.866499	-0.105052	1.026982	0.004861	15.139876	-13.711268	36.117836	-12.501792	18.015120	-9.309690	-6.438411	-57.098361	120.233513	-45.700446	-154.429447	2.168340	3.247591	21.082550	-11.063601	-30.927186	-6.357641	-25.440071	8.570303	57.336309	-3.957455	5.506080	22.873222	10.864377	15.935561	-5.698562	
3.3300	-2.747409	2.050714	8.974909	-0.105641	1.026971	0.005061	14.879048	-13.840161	35.218052	-12.400270	17.265521	-8.894503	-7.004692	-57.398680	119.810300	-47.307642	-155.859970	2.409862	3.067427	20.752525	-10.954121	-30.379117	-6.589847	-25.701331	8.267293	57.442663	-4.323250	5.911799	24.313452	11.448691	15.886325	-6.134345	
